<svg width="18" height="18" viewBox="0 0 18 18" fill="none" xmlns="http://www.w3.org/2000/svg">
<path d="M9 18C4.02944 18 0 13.9706 0 9C0 4.02944 4.02944 0 9 0C13.9706 0 18 4.02944 18 9C18 13.9706 13.9706 18 9 18Z" fill="#DDDDDD"/>
<path d="M10.5 13.4654C10.5 12.6179 9.82843 11.9309 9 11.9309C8.17157 11.9309 7.5 12.6179 7.5 13.4654C7.5 14.313 8.17157 15 9 15C9.82843 15 10.5 14.313 10.5 13.4654Z" fill="#272727" fill-opacity="0.6"/>
<path d="M10.5 8.91122C10.5 8.06369 9.82843 7.37664 9 7.37664C8.17157 7.37664 7.5 8.06369 7.5 8.91122C7.5 9.75874 8.17157 10.4458 9 10.4458C9.82843 10.4458 10.5 9.75874 10.5 8.91122Z" fill="#272727" fill-opacity="0.6"/>
<path d="M10.5 4.35702C10.5 3.50949 9.82843 2.82245 9 2.82245C8.17157 2.82245 7.5 3.50949 7.5 4.35702C7.5 5.20454 8.17157 5.8916 9 5.8916C9.82843 5.8916 10.5 5.20454 10.5 4.35702Z" fill="#272727" fill-opacity="0.6"/>
</svg>
