<svg width="20" height="20" viewBox="0 0 20 20" fill="none" xmlns="http://www.w3.org/2000/svg">
<path d="M9.99993 7C10.8177 7 11.602 7.31607 12.1803 7.87868C12.7585 8.44129 13.0834 9.20435 13.0834 10C13.0834 10.7956 12.7585 11.5587 12.1803 12.1213C11.602 12.6839 10.8177 13 9.99993 13C9.18213 13 8.39784 12.6839 7.81957 12.1213C7.2413 11.5587 6.91644 10.7956 6.91644 10C6.91644 9.20435 7.2413 8.44129 7.81957 7.87868C8.39784 7.31607 9.18213 7 9.99993 7ZM9.99993 8.5C9.59103 8.5 9.19888 8.65804 8.90975 8.93934C8.62061 9.22064 8.45818 9.60218 8.45818 10C8.45818 10.3978 8.62061 10.7794 8.90975 11.0607C9.19888 11.342 9.59103 11.5 9.99993 11.5C10.4088 11.5 10.801 11.342 11.0901 11.0607C11.3792 10.7794 11.5417 10.3978 11.5417 10C11.5417 9.60218 11.3792 9.22064 11.0901 8.93934C10.801 8.65804 10.4088 8.5 9.99993 8.5ZM8.45818 17.5C8.26546 17.5 8.10358 17.365 8.07275 17.185L7.78752 15.1975C7.30187 15.01 6.8856 14.755 6.48475 14.455L4.56528 15.2125C4.39568 15.2725 4.18755 15.2125 4.09504 15.0475L2.5533 12.4525C2.50612 12.3752 2.48948 12.2839 2.50651 12.1955C2.52354 12.1072 2.57305 12.0279 2.6458 11.9725L4.27234 10.7275L4.21838 10L4.27234 9.25L2.6458 8.0275C2.57305 7.9721 2.52354 7.89282 2.50651 7.80447C2.48948 7.71613 2.50612 7.62478 2.5533 7.5475L4.09504 4.9525C4.18755 4.7875 4.39568 4.72 4.56528 4.7875L6.48475 5.5375C6.8856 5.245 7.30187 4.99 7.78752 4.8025L8.07275 2.815C8.10358 2.635 8.26546 2.5 8.45818 2.5H11.5417C11.7344 2.5 11.8963 2.635 11.9271 2.815L12.2123 4.8025C12.698 4.99 13.1143 5.245 13.5151 5.5375L15.4346 4.7875C15.6042 4.72 15.8123 4.7875 15.9048 4.9525L17.4466 7.5475C17.5468 7.7125 17.5005 7.915 17.354 8.0275L15.7275 9.25L15.7815 10L15.7275 10.75L17.354 11.9725C17.5005 12.085 17.5468 12.2875 17.4466 12.4525L15.9048 15.0475C15.8123 15.2125 15.6042 15.28 15.4346 15.2125L13.5151 14.4625C13.1143 14.755 12.698 15.01 12.2123 15.1975L11.9271 17.185C11.8963 17.365 11.7344 17.5 11.5417 17.5H8.45818ZM9.42177 4L9.13655 5.9575C8.2115 6.145 7.39438 6.625 6.80081 7.2925L4.943 6.5125L4.36485 7.4875L5.99139 8.65C5.68304 9.525 5.68304 10.475 5.99139 11.35L4.35714 12.52L4.93529 13.495L6.80851 12.715C7.40209 13.375 8.2115 13.855 9.12884 14.035L9.41406 16H10.5858L10.871 14.0425C11.7884 13.855 12.5978 13.375 13.1913 12.715L15.0646 13.495L15.6427 12.52L14.0085 11.3575C14.3168 10.48 14.3168 9.5275 14.0085 8.65L15.635 7.4875L15.0568 6.5125L13.199 7.2925C12.5933 6.61024 11.7716 6.14326 10.8633 5.965L10.5781 4H9.42177Z" fill="#272727" fill-opacity="0.6"/>
</svg>
